<?xml version="1.0" encoding="UTF-8"?>
<svg width="40px" height="40px" viewBox="0 0 40 40" version="1.1" xmlns="http://www.w3.org/2000/svg" xmlns:xlink="http://www.w3.org/1999/xlink">
    <title>C2A553E0-5B0F-41DB-99D0-FE7E5EA1182A</title>
    <defs>
        <polygon id="path-1" points="9.09442135e-05 0.504123047 39.9308006 0.504123047 39.9308006 39.384613 9.09442135e-05 39.384613"></polygon>
    </defs>
    <g id="Page-1" stroke="none" stroke-width="1" fill="none" fill-rule="evenodd">
        <g id="CK-v1-Header-768" transform="translate(-68.000000, -1391.000000)">
            <g id="Social-Proof-Module-Copy-2" transform="translate(0.000000, 1015.000000)">
                <g id="Group-25" transform="translate(32.000000, 376.000000)">
                    <g id="Dollar-Sign" transform="translate(36.000000, 0.000000)">
                        <g id="Group-3">
                            <mask id="mask-2" fill="white">
                                <use xlink:href="#path-1"></use>
                            </mask>
                            <g id="Clip-2"></g>
                            <path d="M2.79014961,10.0178139 C8.40867559,0.788311162 20.6533666,-2.24936778 30.1390322,3.23297036 C39.6246978,8.71530849 42.759639,20.641532 37.1405355,29.8710347 C31.522587,39.0999748 19.277896,42.1382164 9.79223039,36.6558783 C0.30598735,31.1735401 -2.82837637,19.246754 2.79014961,10.0178139" id="Fill-1" fill="#92BC60" mask="url(#mask-2)"></path>
                        </g>
                        <path d="M20.6420281,21.9593272 L20.6218713,26.1507888 C21.9606862,25.9827775 23.0749544,25.2870743 23.0805983,24.0580654 C23.0862422,22.9024362 22.2557818,22.446119 20.641625,21.9597282 L20.6420281,21.9593272 Z M19.0452061,17.8584875 L19.0633472,13.9685641 C17.5479587,14.1105116 16.6860538,14.8583425 16.6812161,15.8872615 C16.6763785,16.9161805 17.3806572,17.3724977 19.0452061,17.8584875 L19.0452061,17.8584875 Z M18.9911859,29.2535852 C14.5482232,28.951245 12.1080405,26.7274005 12,23.3142444 L16.1152131,23.3383033 C16.3099278,24.920978 17.2395596,25.905388 19.0052956,26.1415663 L19.0278713,21.5234601 C18.9770761,21.5230592 18.9520817,21.5226582 18.9270872,21.4977973 C15.3710239,20.5731335 12.571647,19.7787888 12.5889818,16.0640944 C12.6047041,12.8510282 15.415772,11.1111686 19.077457,10.9820525 L19.0879385,9 L20.7041111,9.00922258 L20.6944358,11.0169379 C24.3799058,11.3148673 26.6435149,13.160586 26.8309732,16.2738079 L22.9423226,16.2509519 C22.7705866,15.0957237 21.9921309,14.3130074 20.6799229,14.0539732 L20.6601692,18.2702957 L20.988322,18.3480861 C24.4943965,19.2222262 27.2167744,20.2675855 27.1999213,23.8307088 C27.1837173,27.2442659 24.3468487,29.1100337 20.608971,29.2640107 L20.5948612,32.1999986 L18.9786887,32.190776 L18.9911859,29.2535852 Z" id="Fill-4" fill="#349558"></path>
                    </g>
                </g>
            </g>
        </g>
    </g>
</svg>