<?xml version="1.0" encoding="UTF-8"?>
<svg width="40px" height="40px" viewBox="0 0 40 40" version="1.1" xmlns="http://www.w3.org/2000/svg" xmlns:xlink="http://www.w3.org/1999/xlink">
    <title>CDD83F8D-AE97-4C63-AD81-DD2C1FEDF541</title>
    <defs>
        <circle id="path-1" cx="19.6923073" cy="19.6923073" r="19.6923073"></circle>
    </defs>
    <g id="Page-1" stroke="none" stroke-width="1" fill="none" fill-rule="evenodd">
        <g id="CK-v1-Header-768" transform="translate(-184.000000, -1391.000000)">
            <g id="Social-Proof-Module-Copy-2" transform="translate(0.000000, 1015.000000)">
                <g id="Group-25" transform="translate(32.000000, 376.000000)">
                    <g id="3-Million" transform="translate(127.000000, 0.000000)">
                        <g id="Woman-Illo" transform="translate(25.000000, 0.000000)">
                            <mask id="mask-2" fill="white">
                                <use xlink:href="#path-1"></use>
                            </mask>
                            <use id="Mask" fill="#A8DCED" xlink:href="#path-1"></use>
                            <g id="Illustrations-100" mask="url(#mask-2)">
                                <g transform="translate(-0.990808, 1.733914)">
                                    <g id="Guides">
                                        <rect id="Rectangle" x="0" y="0" width="41.8616344" height="41.8616344"></rect>
                                    </g>
                                    <g id="Illustrations" transform="translate(5.460213, 2.275089)">
                                        <path d="M7.8987595,7.85930493 C7.8987595,7.85930493 6.17684478,17.7479097 7.62378448,19.3214008 C7.62378448,19.3214008 13.227355,19.7898535 13.227355,19.1729129 C13.227355,18.5559723 13.6185328,15.1716812 13.6185328,15.1716812 L10.6745534,6.70201883 L7.8987595,7.85930493 Z" id="Path" fill="#252E33"></path>
                                        <path d="M21.3160554,2.53307199 C23.3974563,4.76227148 24.9177157,17.9252384 23.6346732,19.081793 C23.6346732,19.081793 17.1597384,19.8088717 17.1597384,19.1919311 C17.1597384,18.5749905 17.5048953,15.1716812 17.5048953,15.1716812 L20.4479334,6.70201883 C20.4479334,6.70201883 19.2346545,0.303768008 21.3160554,2.53307199 Z" id="Path" fill="#252E33"></path>
                                        <polygon id="Path" fill="#AB7862" points="18.5605525 20.2482747 18.3422669 16.4357615 12.867555 16.4357615 12.6478051 20.2730401 10.0920749 21.0253022 10.18715 29.9185887 21.1284155 29.9185887 21.186883 21.0253022"></polygon>
                                        <path d="M26.6316813,22.9680799 C24.8640595,21.8756854 19.5432039,20.408675 19.5432039,20.408675 C19.5432039,20.408675 18.7563507,24.2100072 15.7995063,24.2100072 C12.8426619,24.2100072 11.7353357,20.408675 11.7353357,20.408675 C11.7353357,20.408675 5.87498936,21.8756854 4.10841342,22.9680799 C2.94732642,23.6856495 0.522965049,25.7948883 0.311164204,30.6558034 C0.270163744,31.6025314 0.173206024,34.2018534 0.0522965049,35.8941558 L31.1164204,35.8941558 C30.9527323,34.2018534 30.8265932,31.6025314 30.7855927,30.6558034 C30.5734781,25.7948883 27.79235,23.6856495 26.6316813,22.9680799 Z" id="Path" fill="#252E33" fill-rule="nonzero"></path>
                                        <path d="M20.8597161,10.1398116 L21.4881109,10.1398116 C21.8543995,10.1398116 22.1513352,10.43647 22.1513352,10.8024167 L22.1513352,11.8904224 C22.1513352,12.5455021 21.6197918,13.0765492 20.9640999,13.0765492 L20.8595069,13.0765492 L20.8595069,10.1402296 L20.8597161,10.1398116 Z" id="Path" fill="#AB7862" fill-rule="nonzero"></path>
                                        <path d="M9.05817302,10.1397071 L9.16276603,10.1397071 C9.81845795,10.1397071 10.3500013,10.6707542 10.3500013,11.325834 L10.3500013,12.4139441 C10.3500013,12.7798908 10.0530657,13.0765492 9.68677701,13.0765492 L9.0583822,13.0765492 L9.0583822,10.1402296 L9.05817302,10.1397071 Z" id="Path" fill="#AB7862" fill-rule="nonzero" transform="translate(9.704087, 11.608128) rotate(180.000000) translate(-9.704087, -11.608128) "></path>
                                        <path d="M15.5090515,4.0165926 C12.5516841,4.07113918 10.2375638,6.60974943 10.2375638,9.568849 L10.2375638,12.1746498 C10.2375638,14.184409 11.6567863,16.5173724 12.7358724,17.8300431 L13.4366456,18.6828297 C13.824928,19.1553915 14.4046673,19.429449 15.0166276,19.429449 L16.2031307,19.429449 C16.8151889,19.429449 17.3950057,19.1552813 17.7833219,18.6826207 L18.4840951,17.8299386 C19.5633903,16.5166409 20.9827186,14.1830506 20.9827186,12.1723509 L20.9827186,9.39026643 C20.9836573,7.94826544 20.4041834,6.56645289 19.3746896,5.55576578 C18.3451959,4.54507867 16.9521625,3.99041745 15.5090515,4.0165926 Z" id="Path" fill="#B8866E"></path>
                                        <path d="M9.6853127,8.51950661 L10.509401,7.84028677 C10.7026889,8.88168752 20.6637088,8.78513381 20.7368193,7.77758956 C21.4774424,8.1459357 21.5952141,8.13799405 21.5952141,8.13799405 C22.3607304,7.69911354 22.7304667,5.61881994 22.024673,3.8185739 C20.9264464,1.01809828 17.3406843,-1.02718938 15.5477509,0.672114148 C13.4400972,-1.15310628 9.72830043,1.23847899 8.28428934,6.31716242 C7.8493916,7.84686998 7.89865491,7.8600364 7.89865491,7.8600364 L9.6853127,8.51950661 Z" id="Path" fill="#252E33"></path>
                                        <path d="M11.7434939,20.4297831 C11.7579141,21.2304177 11.8235581,22.0293121 11.9400242,22.8215774 C12.0463188,23.5933669 12.2400474,24.3505905 12.5174822,25.0786771 C12.656116,25.4248333 12.8298066,25.7559237 13.0358452,26.0667852 C13.0899198,26.139932 13.1371958,26.218408 13.1957679,26.2862255 L13.3677188,26.4920814 L13.5550449,26.679128 C13.6178007,26.7401533 13.6898653,26.7903111 13.7558635,26.8463206 C14.0307349,27.0566045 14.3401826,27.217425 14.6703201,27.3215655 C15.0118584,27.4191093 15.3651164,27.4696632 15.7203294,27.4718298 C15.8102794,27.4718298 15.9002293,27.4645152 15.9901793,27.4613803 L16.1252089,27.456051 C16.1698701,27.4532297 16.2128579,27.4436161 16.2567869,27.4379733 C16.3440175,27.4240755 16.4323986,27.4140439 16.518897,27.3981606 L16.7714891,27.332015 C17.1019072,27.234609 17.41174,27.0777301 17.6857366,26.8691006 C18.2373601,26.4494472 18.6214257,25.7986502 18.8935767,25.0942469 C19.153941,24.3605513 19.3288574,23.5993376 19.4148683,22.8256527 C19.5110097,22.0306841 19.5564251,21.2304094 19.5508392,20.4296786 C19.7507438,21.2210461 19.8605304,22.0324417 19.8781107,22.8484327 C19.9054336,23.6827005 19.811651,24.5165233 19.5996841,25.3239277 C19.4839359,25.7418634 19.3178483,26.1442208 19.1050638,26.522176 C18.8855999,26.9179603 18.5961908,27.2707544 18.2508526,27.5634723 C17.8947049,27.8575398 17.4857929,28.081203 17.0459412,28.2225245 L16.7155319,28.312704 C16.6045587,28.334648 16.4930625,28.3496953 16.381671,28.367773 C16.3259229,28.3755057 16.2700702,28.3870002 16.2143222,28.3912845 L16.0478101,28.4004801 C15.9368369,28.4051824 15.8257591,28.4150049 15.7146813,28.4145999 C15.2643063,28.4091118 14.8170189,28.3394423 14.3863501,28.2076862 C13.9505027,28.0598642 13.545608,27.8331648 13.1918979,27.5389159 C13.1082235,27.4617983 13.0185873,27.389592 12.9408747,27.3075631 L12.7127574,27.0567743 C12.644249,26.9682667 12.5775186,26.8791322 12.5117296,26.7886392 C12.4459406,26.6981462 12.3933303,26.601697 12.3339215,26.5085916 C12.1167797,26.1345627 11.9439785,25.7365406 11.8190101,25.3225693 C11.5891196,24.5208477 11.4750072,23.6904347 11.4801288,22.8564788 C11.476213,22.0402551 11.5645611,21.2261996 11.7434939,20.4297831 Z" id="Path" fill="#EA4224" fill-rule="nonzero"></path>
                                        <ellipse id="Oval" fill="#EA4224" fill-rule="nonzero" cx="15.6676145" cy="29.394231" rx="1.13211474" ry="1.13262519"></ellipse>
                                    </g>
                                </g>
                            </g>
                        </g>
                    </g>
                </g>
            </g>
        </g>
    </g>
</svg>